<svg width="254" height="622" viewBox="0 0 254 622" fill="none" xmlns="http://www.w3.org/2000/svg">
<g filter="url(#filter0_d_1638_6850)">
<rect x="4" width="247" height="614" rx="5" fill="#F9F3E9"/>
</g>
<path d="M183.576 462.69C182.36 462.69 181.368 462.722 180.6 462.786C179.832 462.85 179.16 462.978 178.584 463.17C178.008 463.362 177.496 463.618 177.048 463.938C176.536 464.258 175.992 464.642 175.416 465.09C174.264 466.05 173.208 467.01 172.248 467.97C171.224 468.93 170.232 469.922 169.272 470.946C168.248 471.97 167.192 473.026 166.104 474.114C164.952 475.138 163.672 476.226 162.264 477.378C160.792 478.658 159.288 479.426 157.752 479.682C156.152 479.874 154.232 479.97 151.992 479.97H140.184C131.48 479.97 127.128 475.874 127.128 467.682C127.128 463.266 128.216 460.162 130.392 458.37C132.504 456.578 135.768 455.682 140.184 455.682H154.584V462.498H141.144C139.16 462.498 137.56 462.85 136.344 463.554C135.128 464.194 134.52 465.506 134.52 467.49C134.52 470.882 136.408 472.578 140.184 472.578H151.896C153.56 472.578 154.776 472.482 155.544 472.29C156.312 472.034 157.144 471.554 158.04 470.85C160.472 468.93 162.616 466.978 164.472 464.994C166.328 462.946 168.472 460.898 170.904 458.85C171.736 458.146 172.568 457.57 173.4 457.122C174.232 456.674 175.128 456.322 176.088 456.066C177.048 455.81 178.136 455.65 179.352 455.586C180.568 455.458 181.944 455.394 183.48 455.394H194.808C199.032 455.394 202.264 456.354 204.504 458.274C206.744 460.13 207.864 463.266 207.864 467.682C207.864 471.97 206.744 475.106 204.504 477.09C202.264 479.01 199.032 479.97 194.808 479.97H178.008V472.962H193.752C195.8 472.962 197.464 472.61 198.744 471.906C200.024 471.138 200.664 469.794 200.664 467.874C200.664 466.018 200.184 464.706 199.224 463.938C198.2 463.106 196.728 462.69 194.808 462.69H183.576ZM207 449.292H127.992V441.996H199.8V427.884H207V449.292ZM140.568 423.993C131.608 423.993 127.128 419.865 127.128 411.609C127.128 403.289 131.608 399.129 140.568 399.129H194.424C203.384 399.129 207.864 403.289 207.864 411.609C207.864 419.865 203.384 423.993 194.424 423.993H140.568ZM140.568 406.425C136.536 406.425 134.52 408.153 134.52 411.609C134.52 415.001 136.536 416.697 140.568 416.697H194.424C198.584 416.697 200.664 415.001 200.664 411.609C200.664 408.153 198.584 406.425 194.424 406.425H140.568ZM207 366.534C204.184 366.854 200.952 367.206 197.304 367.59C193.592 367.974 189.752 368.358 185.784 368.742C181.816 369.126 177.848 369.51 173.88 369.894C169.912 370.278 166.232 370.63 162.84 370.95C159.448 371.206 156.504 371.462 154.008 371.719C151.448 371.91 149.592 372.038 148.44 372.102C149.592 372.166 151.448 372.326 154.008 372.582C156.504 372.774 159.448 373.03 162.84 373.35C166.232 373.67 169.912 374.022 173.88 374.406C177.848 374.79 181.816 375.206 185.784 375.654C189.752 376.102 193.592 376.55 197.304 376.998C200.952 377.382 204.184 377.766 207 378.15V387.078L127.992 395.91V388.326C131.256 387.942 134.872 387.558 138.84 387.174C142.808 386.726 146.904 386.31 151.128 385.926C155.288 385.478 159.416 385.094 163.512 384.774C167.608 384.39 171.416 384.038 174.936 383.718C178.392 383.398 181.464 383.11 184.152 382.854C186.84 382.598 188.824 382.406 190.104 382.278C188.824 382.15 186.84 381.958 184.152 381.702C181.464 381.382 178.392 381.03 174.936 380.646C171.416 380.262 167.608 379.878 163.512 379.494C159.416 379.046 155.288 378.598 151.128 378.15C146.904 377.638 142.808 377.158 138.84 376.71C134.872 376.262 131.256 375.846 127.992 375.462V368.166L190.104 362.214C188.824 362.086 186.84 361.894 184.152 361.638C181.464 361.318 178.392 360.966 174.936 360.582C171.416 360.198 167.608 359.814 163.512 359.43C159.416 358.982 155.288 358.534 151.128 358.086C146.904 357.574 142.808 357.094 138.84 356.646C134.872 356.198 131.256 355.782 127.992 355.398V347.719L207 357.702V366.534ZM207 342.979H127.992V321.571H135.384L135.384 335.683H163.512V325.987H170.808V335.683H207V342.979ZM207 300.23L193.752 301.958V313.766L207 315.494V322.598L127.992 311.75V303.206L207 292.934V300.23ZM187.032 302.822C180.248 303.654 173.56 304.486 166.968 305.318C160.312 306.15 153.496 306.95 146.52 307.718C153.496 308.55 160.312 309.414 166.968 310.31C173.56 311.142 180.248 312.006 187.032 312.902V302.822ZM183.576 272.659C182.36 272.659 181.368 272.691 180.6 272.755C179.832 272.819 179.16 272.947 178.584 273.139C178.008 273.331 177.496 273.587 177.048 273.907C176.536 274.227 175.992 274.611 175.416 275.059C174.264 276.019 173.208 276.979 172.248 277.939C171.224 278.899 170.232 279.891 169.272 280.915C168.248 281.939 167.192 282.995 166.104 284.083C164.952 285.107 163.672 286.195 162.264 287.347C160.792 288.627 159.288 289.395 157.752 289.651C156.152 289.843 154.232 289.939 151.992 289.939H140.184C131.48 289.939 127.128 285.843 127.128 277.651C127.128 273.235 128.216 270.131 130.392 268.339C132.504 266.547 135.768 265.651 140.184 265.651H154.584V272.467H141.144C139.16 272.467 137.56 272.819 136.344 273.523C135.128 274.163 134.52 275.475 134.52 277.459C134.52 280.851 136.408 282.547 140.184 282.547H151.896C153.56 282.547 154.776 282.451 155.544 282.259C156.312 282.003 157.144 281.523 158.04 280.819C160.472 278.899 162.616 276.947 164.472 274.963C166.328 272.915 168.472 270.867 170.904 268.819C171.736 268.115 172.568 267.539 173.4 267.091C174.232 266.643 175.128 266.291 176.088 266.035C177.048 265.779 178.136 265.619 179.352 265.555C180.568 265.427 181.944 265.363 183.48 265.363H194.808C199.032 265.363 202.264 266.323 204.504 268.243C206.744 270.099 207.864 273.235 207.864 277.651C207.864 281.939 206.744 285.075 204.504 287.059C202.264 288.979 199.032 289.939 194.808 289.939H178.008V282.931H193.752C195.8 282.931 197.464 282.579 198.744 281.875C200.024 281.107 200.664 279.763 200.664 277.843C200.664 275.987 200.184 274.675 199.224 273.907C198.2 273.075 196.728 272.659 194.808 272.659H183.576ZM207 241.788H170.424L170.424 251.964H207V259.26H127.992V251.964H163.224V241.788H127.992V234.492H207V241.788ZM207 227.193H127.992V219.897H207V227.193ZM140.568 213.149C131.608 213.149 127.128 209.021 127.128 200.765C127.128 192.445 131.608 188.285 140.568 188.285H194.424C203.384 188.285 207.864 192.445 207.864 200.765C207.864 209.021 203.384 213.149 194.424 213.149H140.568ZM140.568 195.581C136.536 195.581 134.52 197.309 134.52 200.765C134.52 204.157 136.536 205.853 140.568 205.853H194.424C198.584 205.853 200.664 204.157 200.664 200.765C200.664 197.309 198.584 195.581 194.424 195.581H140.568ZM207 162.049L149.304 175.681C155.32 175.617 161.176 175.585 166.872 175.585C172.504 175.585 178.328 175.585 184.344 175.585H207V181.921H127.992V173.185L185.88 161.089C180.44 161.153 175.128 161.185 169.944 161.185C164.696 161.185 159.352 161.185 153.912 161.185H127.992V154.753H207V162.049Z" fill="black"/>
<path d="M67 364.452V361.986C67 361.806 67 361.608 67 361.428C67 359.34 66.946 357.648 65.794 356.154C64.66 354.678 62.878 353.904 60.574 353.904C58.27 353.904 56.47 354.678 55.336 356.154C54.13 357.72 54.13 359.574 54.13 361.986V364.452H67ZM65.56 362.904H55.552V361.932C55.552 359.718 55.588 358.188 56.488 357.126C57.37 356.064 58.738 355.506 60.556 355.506C62.374 355.506 63.778 356.082 64.642 357.126C65.542 358.206 65.56 359.736 65.56 361.932V362.904ZM63.004 352.201C64.174 352.201 65.218 351.769 66.064 350.923C66.892 350.095 67.342 349.015 67.342 347.827C67.342 346.657 66.874 345.577 66.046 344.731C65.236 343.903 64.174 343.453 63.004 343.453C61.834 343.453 60.754 343.903 59.944 344.731C59.116 345.577 58.666 346.639 58.666 347.827C58.666 349.015 59.098 350.095 59.926 350.923C60.754 351.769 61.834 352.201 63.004 352.201ZM63.004 350.743C61.294 350.743 59.962 349.447 59.962 347.827C59.962 346.225 61.294 344.929 63.004 344.929C64.714 344.929 66.046 346.225 66.046 347.827C66.046 349.429 64.714 350.743 63.004 350.743ZM58.666 336.373V336.589L64.444 339.037L58.954 341.179V342.709L67.504 339.127L61.33 336.481L67.504 333.835L58.954 330.253V331.801L64.444 333.961L58.666 336.373ZM67 328.842V327.474H62.842C61.96 327.474 61.294 327.474 60.718 327.006C60.16 326.556 59.854 325.854 59.854 325.044C59.854 323.604 60.646 322.938 62.266 322.938H67V321.534H61.528C59.71 321.534 58.666 322.686 58.666 324.558C58.666 325.818 59.152 326.79 60.196 327.492H58.954V328.842H67ZM67 318.751V317.347H53.374V318.751H67ZM63.004 315.111C64.174 315.111 65.218 314.679 66.064 313.833C66.892 313.005 67.342 311.925 67.342 310.737C67.342 309.567 66.874 308.487 66.046 307.641C65.236 306.813 64.174 306.363 63.004 306.363C61.834 306.363 60.754 306.813 59.944 307.641C59.116 308.487 58.666 309.549 58.666 310.737C58.666 311.925 59.098 313.005 59.926 313.833C60.754 314.679 61.834 315.111 63.004 315.111ZM63.004 313.653C61.294 313.653 59.962 312.357 59.962 310.737C59.962 309.135 61.294 307.839 63.004 307.839C64.714 307.839 66.046 309.135 66.046 310.737C66.046 312.339 64.714 313.653 63.004 313.653ZM58.954 296.727V298.095H60.466C59.278 298.707 58.666 299.697 58.666 301.047C58.666 303.297 60.304 304.827 63.004 304.827C65.632 304.827 67.342 303.279 67.342 300.975C67.342 299.733 66.712 298.707 65.542 298.059H67V296.727H58.954ZM63.058 298.059C64.912 298.059 65.974 299.067 65.974 300.687C65.974 302.397 64.876 303.369 62.932 303.369C61.096 303.369 60.034 302.397 60.034 300.741C60.034 299.193 61.186 298.059 63.058 298.059ZM53.374 286.479V287.847H60.466C59.278 288.459 58.666 289.449 58.666 290.781C58.666 293.031 60.304 294.579 63.004 294.579C65.632 294.579 67.342 293.031 67.342 290.727C67.342 289.485 66.694 288.441 65.542 287.811H67V286.479H53.374ZM63.022 287.811C64.93 287.811 66.01 288.855 66.01 290.511C66.01 292.113 64.858 293.121 62.842 293.121C61.06 293.121 60.034 292.131 60.034 290.529C60.034 288.909 61.204 287.811 63.022 287.811ZM53.626 274.146L67 279.978V278.322L63.058 276.648V271.626L67 269.952V268.296L53.626 274.146ZM57.01 274.146L61.744 272.094V276.198L57.01 274.146ZM70.924 267.108V265.74H65.542C66.73 265.128 67.342 264.138 67.342 262.806C67.342 260.556 65.722 259.008 63.004 259.008C60.358 259.008 58.666 260.556 58.666 262.86C58.666 264.102 59.296 265.164 60.466 265.794H58.954V267.108H70.924ZM63.004 265.776C61.096 265.776 59.998 264.732 59.998 263.076C59.998 261.474 61.15 260.466 63.166 260.466C64.948 260.466 65.992 261.456 65.992 263.058C65.992 264.678 64.822 265.776 63.004 265.776ZM70.924 256.807V255.439H65.542C66.73 254.827 67.342 253.837 67.342 252.505C67.342 250.255 65.722 248.707 63.004 248.707C60.358 248.707 58.666 250.255 58.666 252.559C58.666 253.801 59.296 254.863 60.466 255.493H58.954V256.807H70.924ZM63.004 255.475C61.096 255.475 59.998 254.431 59.998 252.775C59.998 251.173 61.15 250.165 63.166 250.165C64.948 250.165 65.992 251.155 65.992 252.757C65.992 254.377 64.822 255.475 63.004 255.475Z" fill="black"/>
<path d="M106 307L83.5 294.01V319.99L106 307Z" fill="black"/>
<defs>
<filter id="filter0_d_1638_6850" x="0" y="0" width="255" height="622" filterUnits="userSpaceOnUse" color-interpolation-filters="sRGB">
<feFlood flood-opacity="0" result="BackgroundImageFix"/>
<feColorMatrix in="SourceAlpha" type="matrix" values="0 0 0 0 0 0 0 0 0 0 0 0 0 0 0 0 0 0 127 0" result="hardAlpha"/>
<feOffset dy="4"/>
<feGaussianBlur stdDeviation="2"/>
<feComposite in2="hardAlpha" operator="out"/>
<feColorMatrix type="matrix" values="0 0 0 0 0 0 0 0 0 0 0 0 0 0 0 0 0 0 0.25 0"/>
<feBlend mode="normal" in2="BackgroundImageFix" result="effect1_dropShadow_1638_6850"/>
<feBlend mode="normal" in="SourceGraphic" in2="effect1_dropShadow_1638_6850" result="shape"/>
</filter>
</defs>
</svg>
